<svg xmlns="http://www.w3.org/2000/svg" width="41.248" height="41.177" viewBox="0 0 41.248 41.177">
  <g id="opensea" transform="translate(-4.953 -6)">
    <g id="Group_1481" data-name="Group 1481" transform="translate(4.953 6)">
      <path id="Path_140" data-name="Path 140" d="M13.529,25.573a1.75,1.75,0,0,1,1.751-1.751h.008l2.914.008a1.75,1.75,0,0,1,1.751,1.751V36.6c.328-.1.749-.2,1.213-.312a1.461,1.461,0,0,0,1.128-1.423V21.211a1.75,1.75,0,0,1,1.751-1.751h2.922a1.75,1.75,0,0,1,1.751,1.751V33.884s.733-.295,1.44-.6a1.463,1.463,0,0,0,.893-1.347V16.84A1.75,1.75,0,0,1,32.8,15.089h2.914a1.75,1.75,0,0,1,1.751,1.751V29.286A34.4,34.4,0,0,0,44.593,22.6a2.946,2.946,0,0,0,.446-2.745A20.609,20.609,0,1,0,7.694,36.873a2.6,2.6,0,0,0,2.484,1.288c.556-.051,1.238-.118,2.055-.211A1.457,1.457,0,0,0,13.521,36.5l.008-10.93" transform="translate(-4.953 -6.003)" fill="#21325b"/>
      <path id="Path_141" data-name="Path 141" d="M106.1,251.479a20.6,20.6,0,0,0,32.731-16.665c0-.472-.025-.943-.051-1.415-7.528,11.233-21.439,16.488-32.681,18.079" transform="translate(-97.583 -214.252)" fill="#979695"/>
    </g>
    <path id="Path_142" data-name="Path 142" d="M46.677,26.589A20.589,20.589,0,1,1,26.089,6,20.592,20.592,0,0,1,46.677,26.589Z" transform="translate(-0.501)" fill="#2081e2"/>
    <path id="Path_143" data-name="Path 143" d="M125.931,165.509l.084-.126,5.356-8.362c.084-.126.244-.126.328.042.909,2.021,1.65,4.488,1.314,6.054a8.8,8.8,0,0,1-1.069,2.307.985.985,0,0,1-.2.328.219.219,0,0,1-.168.084h-5.516A.225.225,0,0,1,125.931,165.509Z" transform="translate(-110.76 -138.221)" fill="#fff"/>
    <path id="Path_144" data-name="Path 144" d="M133.105,118.418v1.314c0,.084-.042.126-.126.168a6.4,6.4,0,0,0-2.434,1.65c-1.524,2.1-2.678,5.1-5.229,5.1H114.58a6.9,6.9,0,0,1-6.88-6.922v-.126a.181.181,0,0,1,.168-.168h6.054a.216.216,0,0,1,.2.2,2.333,2.333,0,0,0,.2,1.154,2.094,2.094,0,0,0,1.895,1.154h2.964v-2.307h-2.922a.187.187,0,0,1-.168-.286.581.581,0,0,0,.126-.168c.286-.413.657-.985,1.069-1.684a9.738,9.738,0,0,0,.741-1.482,2.39,2.39,0,0,0,.126-.286c.042-.168.126-.328.168-.455s.084-.244.126-.371a6.808,6.808,0,0,0,.126-1.356,2.782,2.782,0,0,0-.042-.573c0-.2-.042-.413-.042-.615a2.392,2.392,0,0,0-.084-.539,5.738,5.738,0,0,0-.168-.825l-.042-.084a2.65,2.65,0,0,0-.168-.539c-.168-.573-.37-1.154-.573-1.65-.084-.2-.168-.413-.244-.615-.126-.286-.244-.573-.37-.825-.042-.126-.126-.2-.168-.328s-.126-.244-.168-.371c-.042-.084-.084-.168-.126-.244l-.37-.657c-.042-.084.042-.2.126-.168l2.265.615h0l.286.084.328.084.126.042V105a1.192,1.192,0,0,1,1.154-1.2,1.179,1.179,0,0,1,.825.328,1.164,1.164,0,0,1,.328.825v1.979l.244.084a.041.041,0,0,1,.042.042,1.448,1.448,0,0,0,.244.2,1.672,1.672,0,0,0,.286.244c.2.168.5.413.783.657.084.084.168.126.2.2a15.975,15.975,0,0,1,1.2,1.2c.126.126.2.244.328.371s.2.286.328.413c.126.168.286.371.413.539a2.149,2.149,0,0,1,.168.286c.168.244.286.5.455.741.042.126.126.244.168.371a2.937,2.937,0,0,1,.328,1.027.445.445,0,0,1,.042.2h0a.779.779,0,0,1,.042.328,4.553,4.553,0,0,1-.042,1.069c-.042.168-.084.286-.126.455a3.135,3.135,0,0,1-.168.455,9.574,9.574,0,0,1-.455.867c-.042.084-.126.2-.2.328a1.157,1.157,0,0,0-.2.328c-.084.126-.2.244-.286.371a2.745,2.745,0,0,1-.286.371c-.126.168-.286.328-.413.5a2039668559500.258,2039668559500.258,0,0,1-.573.573,2.593,2.593,0,0,1-.371.328l-.244.2a.155.155,0,0,1-.126.042h-1.81v2.307h2.265a2.041,2.041,0,0,0,1.356-.5c.126-.126.7-.615,1.4-1.356.042-.042.042-.042.084-.042l6.257-1.81C133.021,118.216,133.105,118.292,133.105,118.418Z" transform="translate(-94.095 -89.565)" fill="#fff"/>
  </g>
</svg>
