<svg id="eth" xmlns="http://www.w3.org/2000/svg" xmlns:xlink="http://www.w3.org/1999/xlink" width="10.321" height="14" viewBox="0 0 10.321 14">
  <defs>
    <clipPath id="clip-path">
      <rect id="Rectangle_2677" data-name="Rectangle 2677" width="10.321" height="14" fill="#848383"/>
    </clipPath>
  </defs>
  <g id="Group_3379" data-name="Group 3379" clip-path="url(#clip-path)">
    <path id="Path_1081" data-name="Path 1081" d="M9.093,10.572a5.315,5.315,0,0,1-3,.812,5.405,5.405,0,0,1-2.507-.572A4.453,4.453,0,0,1,1.835,9.249,4.025,4.025,0,0,1,1.2,7.023a4.063,4.063,0,0,1,.639-2.234A4.367,4.367,0,0,1,3.6,3.225a5.518,5.518,0,0,1,2.515-.564A4.95,4.95,0,0,1,9.568,3.894l.754-.707A4.839,4.839,0,0,0,8.47,2.052,7.209,7.209,0,0,0,6.159,1.67V0L5,.524V1.741a6.459,6.459,0,0,0-2.046.619A5.384,5.384,0,0,0,.786,4.278,4.975,4.975,0,0,0,0,7.023,4.976,4.976,0,0,0,.786,9.768a5.379,5.379,0,0,0,2.163,1.918A6.445,6.445,0,0,0,5,12.306V14l1.163-.523v-1.1a7.61,7.61,0,0,0,2.2-.344,5.751,5.751,0,0,0,1.9-.993V7.922L9.093,8.4Z" transform="translate(0 -0.001)" fill="#848383"/>
  </g>
</svg>
