<svg xmlns="http://www.w3.org/2000/svg" xmlns:xlink="http://www.w3.org/1999/xlink" version="1.1" id="Layer_1" x="0px" y="0px" style="enable-background:new 0 0 566.9 566.9;" xml:space="preserve" fill="#FE2C85" viewBox="153.4 72.3 262.8 385.8">
<path d="M369.2,353.6c-17.5,11.6-38.9,17.4-63.6,17.4c-20.6,0-39.4-4.6-55.8-13.8c-16.4-9.1-29.4-21.8-38.8-37.7  c-9.4-15.8-14.1-33.9-14.1-53.7c0-19.8,4.8-37.9,14.1-53.9c9.4-16,22.5-28.6,38.9-37.6c16.5-9.1,35.4-13.7,56.1-13.7  c31,0,56.8,10,76.7,29.7l5.4,5.3l28.1-28.7l-4.8-5.2c-12.7-13.8-28.4-24.3-46.8-31.3c-15.3-5.8-32.1-9.2-50-10.1V72.3L272,93.2v29.8  c-16,3-31,8.3-44.7,15.8c-22.9,12.5-41.1,30.1-54.2,52.3c-13.1,22.2-19.7,47.3-19.7,74.7c0,27.4,6.6,52.6,19.7,74.7  c13.1,22.2,31.3,39.8,54.2,52.3c13.7,7.5,28.7,12.8,44.7,15.8v49.5l42.6-20.9v-25.9c16.3-0.9,32.1-3.9,47.1-9  c18.2-6.3,34.2-15.4,47.6-27.1l2.6-2.2v-95.5l-42.6,19.1V353.6z"/>
</svg>